IKResults
version=1
nRows=5
nColumns=63
inDegrees=yes

Units are S.I. units (second, meters, Newtons, ...)
If the header above contains a line with 'inDegrees', this indicates whether rotational values are in degrees (yes) or radians (no).

endheader
time	pelvis_tilt	pelvis_list	pelvis_rotation	pelvis_tx	pelvis_ty	pelvis_tz	hip_flexion_r	hip_adduction_r	hip_rotation_r	knee_angle_r	knee_angle_r_beta	ankle_angle_r	subtalar_angle_r	mtp_angle_r	hip_flexion_l	hip_adduction_l	hip_rotation_l	knee_angle_l	knee_angle_l_beta	ankle_angle_l	subtalar_angle_l	mtp_angle_l	L5_S1_Flex_Ext	L5_S1_Lat_Bending	L5_S1_axial_rotation	L4_L5_Flex_Ext	L4_L5_Lat_Bending	L4_L5_axial_rotation	L3_L4_Flex_Ext	L3_L4_Lat_Bending	L3_L4_axial_rotation	L2_L3_Flex_Ext	L2_L3_Lat_Bending	L2_L3_axial_rotation	L1_L2_Flex_Ext	L1_L2_Lat_Bending	L1_L2_axial_rotation	L1_T12_Flex_Ext	L1_T12_Lat_Bending	L1_T12_axial_rotation	Abs_r3	Abs_r2	Abs_r1	Abs_t1	Abs_t2	neck_flexion	neck_bending	neck_rotation	arm_flex_r	arm_add_r	arm_rot_r	elbow_flex_r	pro_sup_r	wrist_flex_r	wrist_dev_r	arm_flex_l	arm_add_l	arm_rot_l	elbow_flex_l	pro_sup_l	wrist_flex_l	wrist_dev_l
      2.03333333	    -94.09528860	     32.56754951	     87.31002310	     -0.72111656	      0.30830924	     -0.36347955	     90.72230532	      6.36003887	     11.94639749	     59.33847763	      1.03565181	      0.00000000	      0.00000000	      0.00000000	     38.64066144	      2.06870955	     13.49347561	     24.67533448	      0.43066583	    -35.46639605	    -17.51151119	      0.00000000	      9.22000700	     -0.47233263	      2.34489918	     17.12247500	     -0.62820239	      2.49145538	     15.14754950	     -1.14842955	      2.49145538	     10.53754600	     -1.14842955	      2.05178678	      8.56169850	     -0.96318069	      1.90523058	      5.26831200	     -0.73164324	      1.75867438	     65.85758801	     -5.34312114	     13.04162577	      0.00000000	      0.00000000	      8.17074787	     -9.91746973	    -44.55507555	    -24.87829359	   -180.68306251	      9.78718910	     29.77115143	     89.99559364	      0.00000000	      0.00000000	     -0.46836408	      5.92777296	     63.91630590	     47.26950144	     89.99559364	      0.00000000	      0.00000000
      2.06666667	    -93.24440204	     33.81009235	     86.02108681	     -0.72200099	      0.30489027	     -0.36223515	     89.92371247	      7.66382307	     10.51710846	     55.81138692	      0.97409246	      0.00000000	      0.00000000	      0.00000000	     36.86513443	      2.45770505	      9.84218962	     25.65711566	      0.44780114	    -36.09869926	    -16.99536449	      0.00000000	      9.02477033	     -0.30685873	      2.35469165	     16.75990098	     -0.40812211	      2.50185988	     14.82679518	     -0.74609631	      2.50185988	     10.31441001	     -0.74609631	      2.06035519	      8.38040173	     -0.62574632	      1.91318697	      5.15675377	     -0.47532417	      1.76601874	     64.46303200	     -3.47124731	     13.09608855	      0.00000000	      0.00000000	      8.93901611	     -9.42568425	    -44.60771160	    -26.45009899	   -183.58882354	     21.84359050	     28.88397577	     89.99559364	      0.00000000	      0.00000000	     -0.25660787	      6.16294255	     61.85674426	     47.56262857	     89.99559364	      0.00000000	      0.00000000
      2.10000000	    -91.72497229	     34.79059000	     83.93970256	     -0.72236940	      0.30171041	     -0.36256621	     88.82109164	      9.24706413	     10.16001889	     54.84698989	      0.95726056	      0.00000000	      0.00000000	      0.00000000	     35.18487135	      2.29807667	      6.13291556	     26.34744616	      0.45984969	    -36.20519045	    -16.90399853	      0.00000000	      8.87637062	     -0.08711558	      2.41318429	     16.48430787	     -0.11586372	      2.56400831	     14.58298929	     -0.21181282	      2.56400831	     10.14480398	     -0.21181282	      2.11153625	      8.24259776	     -0.17764609	      1.96071223	      5.07195817	     -0.13494203	      1.80988822	     63.40302769	     -0.98546886	     13.42140705	      0.00000000	      0.00000000	      9.70815628	     -8.87812044	    -44.65110637	    -26.34187315	   -183.97813150	     22.47191816	     28.67517530	     89.99559364	      0.00000000	      0.00000000	     -0.14507426	      6.83520816	     60.11839421	     47.63344044	     89.99559364	      0.00000000	      0.00000000
      2.13333333	    -89.78278655	     35.88004146	     81.84180788	     -0.72273822	      0.29911763	     -0.36396293	     87.20714082	     10.54701902	      9.96186842	     54.31922735	      0.94804936	      0.00000000	      0.00000000	      0.00000000	     33.31296967	      2.17647073	      3.30570785	     26.83083036	      0.46828633	    -35.88499600	    -17.17126758	      0.00000000	      8.68912931	      0.13122780	      2.43786558	     16.13658204	      0.17453297	      2.59023217	     14.27537054	      0.31906727	      2.59023217	      9.93080589	      0.31906727	      2.13313238	      8.06872548	      0.26759972	      1.98076578	      4.96496849	      0.20327186	      1.82839918	     62.06558175	      1.48447508	     13.55867697	      0.00000000	      0.00000000	     10.54725933	     -8.38016557	    -44.67953072	    -25.94088788	   -184.26001655	     23.13636401	     28.66843257	     89.99559364	      0.00000000	      0.00000000	      0.20735793	      7.71162314	     58.80549353	     47.47164457	     89.99559364	      0.00000000	      0.00000000
      2.16666667	    -87.81327014	     36.58808927	     79.41199006	     -0.72310938	      0.29585376	     -0.36607294	     85.62672775	     12.11114895	      4.49291017	     20.86375819	      0.36414127	      0.00000000	      0.00000000	      0.00000000	     31.68703846	      1.78155894	      0.12219991	     26.90964335	      0.46966188	    -35.20252271	    -17.20769018	      0.00000000	      8.56047671	      0.36050199	      2.48883217	     15.89766130	      0.47946764	      2.64438418	     14.06400719	      0.87652453	      2.64438418	      9.78376883	      0.87652453	      2.17772815	      7.94925867	      0.73513565	      2.02217614	      4.89145639	      0.55841758	      1.86662413	     61.14662910	      4.07807059	     13.84213789	      0.00000000	      0.00000000	     11.11866847	     -7.90740861	    -44.69625605	    -25.87195347	   -184.82001727	     25.70681804	     28.58073940	     89.99559364	      0.00000000	      0.00000000	      0.15084352	      8.56880206	     56.78430844	     47.65223229	     89.99559364	      0.00000000	      0.00000000
